<svg xmlns="http://www.w3.org/2000/svg" viewBox="0 0 128 128" role="img" aria-label="Plantr by Mingie favicon">
  <defs>
    <linearGradient id="bg" x1="0%" y1="0%" x2="100%" y2="100%">
      <stop offset="0%" stop-color="#fff8ef" />
      <stop offset="100%" stop-color="#f5e7d2" />
    </linearGradient>
    <linearGradient id="pot" x1="0%" y1="0%" x2="100%" y2="100%">
      <stop offset="0%" stop-color="#cf8a47" />
      <stop offset="100%" stop-color="#9f5c2c" />
    </linearGradient>
    <filter id="shadow" x="-20%" y="-20%" width="140%" height="140%">
      <feDropShadow dx="0" dy="3" stdDeviation="3" flood-color="#000000" flood-opacity="0.16" />
    </filter>
    <clipPath id="leafShape">
      <path d="M64 15C46 18 34 34 34 57c0 15 6 29 16 37 4 3 9 6 14 9 5-3 10-6 14-9 10-8 16-22 16-37 0-23-12-39-30-42Z" />
    </clipPath>
  </defs>

  <rect width="128" height="128" rx="28" fill="url(#bg)" />

  <g filter="url(#shadow)">
    <path d="M64 15C46 18 34 34 34 57c0 15 6 29 16 37 4 3 9 6 14 9 5-3 10-6 14-9 10-8 16-22 16-37 0-23-12-39-30-42Z" fill="#204926" stroke="#6f8766" stroke-width="2.5" />
    <g clip-path="url(#leafShape)">
      <rect x="24" y="8" width="36" height="104" fill="#f2c5cf" />
      <rect x="60" y="8" width="44" height="104" fill="#2f6b34" />
      <path d="M53 23c7 6 10 10 12 17-8 3-14 7-20 14 1-12 3-22 8-31Z" fill="#fff4ea" fill-opacity="0.92" />
      <path d="M73 24c7 4 12 10 15 16-6 1-11 3-17 8 1-8 1-16 2-24Z" fill="#d7e6cd" fill-opacity="0.9" />
      <circle cx="50" cy="51" r="5" fill="#f8d9df" />
      <circle cx="76" cy="58" r="5" fill="#bcd4b4" />
      <circle cx="67" cy="42" r="3.8" fill="#efe4bf" />
      <circle cx="58" cy="70" r="3.2" fill="#f6ddd8" />
      <circle cx="80" cy="76" r="3.6" fill="#cfdfc6" />
    </g>
    <path d="M64 27v63" stroke="#f4efe4" stroke-opacity="0.88" stroke-width="2.5" stroke-linecap="round" />
    <path d="M64 41c-7 6-14 10-23 13" stroke="#e9e2d7" stroke-opacity="0.5" stroke-width="1.6" stroke-linecap="round" />
    <path d="M64 49c8 5 15 8 22 10" stroke="#dce8d7" stroke-opacity="0.5" stroke-width="1.6" stroke-linecap="round" />

    <path d="M61 91c0 6-2 12-6 18" stroke="#7a9a68" stroke-width="3" stroke-linecap="round" />
    <path d="M67 91c0 6 2 12 6 18" stroke="#7a9a68" stroke-width="3" stroke-linecap="round" />

    <g transform="translate(39 94)">
      <ellipse cx="25" cy="18" rx="21" ry="7" fill="#8f4f29" fill-opacity="0.18" />
      <path d="M4 4h42l-5 24H9Z" fill="url(#pot)" stroke="#9f5c2c" stroke-width="2" />
      <ellipse cx="25" cy="4" rx="21" ry="6.5" fill="#d79a5f" stroke="#9f5c2c" stroke-width="2" />
      <ellipse cx="25" cy="4" rx="15" ry="3.8" fill="#6f4d34" />
    </g>
  </g>
</svg>
